<svg width="40" height="40" viewBox="0 0 40 40" fill="none" xmlns="http://www.w3.org/2000/svg">
<path d="M10.51 14.5183C6.17331 15.7233 3.33331 17.7283 3.33331 20C3.33331 23.6833 10.795 26.6666 20 26.6666C21.2883 26.6666 22.5433 26.6083 23.7466 26.4966M29.4866 25.4816C33.825 24.2783 36.6666 22.2716 36.6666 20C36.6666 16.3166 29.205 13.3333 20 13.3333C18.7116 13.3333 17.4566 13.3916 16.25 13.5033" stroke="black" stroke-width="2" stroke-linecap="round" stroke-linejoin="round"/>
<path d="M10.5083 25.4782C9.38163 29.8366 9.69996 33.2999 11.6666 34.4332C14.855 36.2749 21.1716 31.3049 25.7733 23.3332C26.4183 22.2166 26.995 21.1016 27.5 19.9999M29.49 14.5266C30.6183 10.1666 30.3016 6.69991 28.3333 5.56657C25.145 3.72491 18.8283 8.69491 14.2266 16.6666C13.5816 17.7832 13.005 18.8999 12.4983 19.9999" stroke="black" stroke-width="2" stroke-linecap="round" stroke-linejoin="round"/>
<path d="M20 9.03999C16.7916 5.88666 13.6333 4.42999 11.6666 5.56666C8.47829 7.40666 9.62329 15.3617 14.2266 23.3333C14.87 24.45 15.5483 25.5067 16.2466 26.4933M20 30.9567C23.21 34.1117 26.3683 35.57 28.3333 34.4333C31.5216 32.5933 30.3766 24.6383 25.7733 16.6667C25.1483 15.5833 24.4733 14.5283 23.7533 13.505M19.1666 21.4433C19.3562 21.5545 19.566 21.627 19.7837 21.6568C20.0015 21.6866 20.223 21.673 20.4355 21.6168C20.648 21.5606 20.8473 21.463 21.0219 21.3295C21.1965 21.196 21.343 21.0292 21.4529 20.8389C21.5628 20.6485 21.634 20.4383 21.6623 20.2203C21.6906 20.0024 21.6756 19.781 21.618 19.5688C21.5604 19.3567 21.4614 19.1581 21.3267 18.9844C21.1921 18.8107 21.0244 18.6653 20.8333 18.5567C20.4507 18.3391 19.9976 18.2818 19.5728 18.3971C19.1481 18.5124 18.7862 18.791 18.5662 19.1722C18.3461 19.5533 18.2857 20.006 18.3982 20.4315C18.5107 20.857 18.7869 21.2207 19.1666 21.4433Z" stroke="black" stroke-width="2" stroke-linecap="round" stroke-linejoin="round"/>
</svg>
