<svg width="20" height="20" viewBox="0 0 20 20" fill="none" xmlns="http://www.w3.org/2000/svg">
<path d="M14.7413 9.375H3.125C2.95924 9.375 2.80027 9.44085 2.68306 9.55806C2.56585 9.67527 2.5 9.83424 2.5 10C2.5 10.1658 2.56585 10.3247 2.68306 10.4419C2.80027 10.5592 2.95924 10.625 3.125 10.625H14.7413L10.1825 15.1825C10.0651 15.2999 9.99921 15.459 9.99921 15.625C9.99921 15.791 10.0651 15.9501 10.1825 16.0675C10.2999 16.1849 10.459 16.2508 10.625 16.2508C10.791 16.2508 10.9501 16.1849 11.0675 16.0675L16.6925 10.4425C16.7507 10.3844 16.7969 10.3155 16.8284 10.2395C16.8599 10.1636 16.8761 10.0822 16.8761 10C16.8761 9.91779 16.8599 9.83639 16.8284 9.76046C16.7969 9.68453 16.7507 9.61556 16.6925 9.5575L11.0675 3.9325C10.9501 3.81514 10.791 3.74921 10.625 3.74921C10.459 3.74921 10.2999 3.81514 10.1825 3.9325C10.0651 4.04986 9.99921 4.20903 9.99921 4.375C9.99921 4.54097 10.0651 4.70014 10.1825 4.8175L14.7413 9.375Z" fill="#555555"/>
</svg>
