<svg width="43" height="43" viewBox="0 0 43 43" fill="none" xmlns="http://www.w3.org/2000/svg">
<g filter="url(#filter0_d_51_2)">
<circle cx="21.5" cy="17.5" r="17.5" fill="#3B82F6"/>
</g>
<g filter="url(#filter1_d_51_2)">
<path d="M28.3333 24.5L23.0833 19.25C22.6667 19.5833 22.1875 19.8472 21.6458 20.0417C21.1042 20.2361 20.5278 20.3333 19.9167 20.3333C18.4028 20.3333 17.1217 19.8089 16.0733 18.76C15.025 17.7111 14.5006 16.43 14.5 14.9167C14.5 13.4028 15.0244 12.1217 16.0733 11.0733C17.1222 10.025 18.4033 9.50056 19.9167 9.5C21.4306 9.5 22.7119 10.0244 23.7608 11.0733C24.8097 12.1222 25.3339 13.4033 25.3333 14.9167C25.3333 15.5278 25.2361 16.1042 25.0417 16.6458C24.8472 17.1875 24.5833 17.6667 24.25 18.0833L29.5 23.3333L28.3333 24.5ZM19.9167 18.6667C20.9583 18.6667 21.8439 18.3022 22.5733 17.5733C23.3028 16.8444 23.6672 15.9589 23.6667 14.9167C23.6667 13.875 23.3022 12.9897 22.5733 12.2608C21.8444 11.5319 20.9589 11.1672 19.9167 11.1667C18.875 11.1667 17.9897 11.5314 17.2608 12.2608C16.5319 12.9903 16.1672 13.8756 16.1667 14.9167C16.1667 15.9583 16.5314 16.8439 17.2608 17.5733C17.9903 18.3028 18.8756 18.6672 19.9167 18.6667Z" fill="white"/>
</g>
<defs>
<filter id="filter0_d_51_2" x="0" y="0" width="43" height="43" filterUnits="userSpaceOnUse" color-interpolation-filters="sRGB">
<feFlood flood-opacity="0" result="BackgroundImageFix"/>
<feColorMatrix in="SourceAlpha" type="matrix" values="0 0 0 0 0 0 0 0 0 0 0 0 0 0 0 0 0 0 127 0" result="hardAlpha"/>
<feOffset dy="4"/>
<feGaussianBlur stdDeviation="2"/>
<feComposite in2="hardAlpha" operator="out"/>
<feColorMatrix type="matrix" values="0 0 0 0 0 0 0 0 0 0 0 0 0 0 0 0 0 0 0.25 0"/>
<feBlend mode="normal" in2="BackgroundImageFix" result="effect1_dropShadow_51_2"/>
<feBlend mode="normal" in="SourceGraphic" in2="effect1_dropShadow_51_2" result="shape"/>
</filter>
<filter id="filter1_d_51_2" x="8" y="7" width="28" height="28" filterUnits="userSpaceOnUse" color-interpolation-filters="sRGB">
<feFlood flood-opacity="0" result="BackgroundImageFix"/>
<feColorMatrix in="SourceAlpha" type="matrix" values="0 0 0 0 0 0 0 0 0 0 0 0 0 0 0 0 0 0 127 0" result="hardAlpha"/>
<feOffset dy="4"/>
<feGaussianBlur stdDeviation="2"/>
<feComposite in2="hardAlpha" operator="out"/>
<feColorMatrix type="matrix" values="0 0 0 0 0 0 0 0 0 0 0 0 0 0 0 0 0 0 0.25 0"/>
<feBlend mode="normal" in2="BackgroundImageFix" result="effect1_dropShadow_51_2"/>
<feBlend mode="normal" in="SourceGraphic" in2="effect1_dropShadow_51_2" result="shape"/>
</filter>
</defs>
</svg>
